<svg width="682" height="411" viewBox="0 0 682 411" fill="none" xmlns="http://www.w3.org/2000/svg">
<path d="M682 371.99C682 384.814 682 391.225 679.704 396.207C677.211 401.613 672.872 405.952 667.466 408.444C662.485 410.74 656.073 410.74 643.25 410.74H38.75C25.9266 410.74 19.5148 410.74 14.5335 408.444C9.12771 405.952 4.78853 401.613 2.29642 396.207C0 391.225 0 384.814 0 371.99V15.6391C0.00479067 11.4927 1.65408 7.51755 4.58606 4.58568C7.51803 1.6538 11.4933 0.00465016 15.6396 0H666.36C670.507 0.00463948 674.482 1.65379 677.414 4.58566C680.346 7.51753 681.995 11.4927 682 15.6391V371.99Z" fill="#26547C"/>
<path d="M641.267 382.064H40.7331C37.5366 382.06 34.4719 380.789 32.2115 378.529C29.9512 376.268 28.6797 373.204 28.6761 370.007V40.7332C28.6797 37.5365 29.9511 34.4718 32.2115 32.2114C34.4718 29.951 37.5365 28.6795 40.7331 28.6758H641.267C644.464 28.6795 647.528 29.951 649.789 32.2114C652.049 34.4718 653.32 37.5365 653.324 40.7332V370.007C653.32 373.204 652.049 376.268 649.788 378.529C647.528 380.789 644.463 382.06 641.267 382.064Z" fill="white"/>
<path d="M596.106 81.9094H528.61C515.786 81.9094 509.375 81.9094 504.393 84.2058C498.987 86.6979 494.648 91.0371 492.156 96.4429C489.86 101.424 489.86 107.836 489.86 120.659V153.933C489.86 166.756 489.86 173.168 492.156 178.149C494.648 183.555 498.987 187.894 504.393 190.386C509.375 192.683 515.786 192.683 528.61 192.683H596.106C608.929 192.683 615.341 192.683 620.322 190.386C625.728 187.894 630.067 183.555 632.559 178.149C634.856 173.168 634.856 166.756 634.856 153.933V120.659C634.856 107.836 634.856 101.424 632.559 96.4429C630.067 91.0371 625.728 86.6979 620.322 84.2058C615.341 81.9094 608.929 81.9094 596.106 81.9094Z" fill="#F2F2F2"/>
<path d="M588.901 87.4137H535.815C522.991 87.4137 516.579 87.4137 511.598 89.7101C506.192 92.2022 501.853 96.5414 499.361 101.947C497.065 106.929 497.065 113.34 497.065 126.164V148.428C497.065 161.252 497.065 167.664 499.361 172.645C501.853 178.051 506.192 182.39 511.598 184.882C516.579 187.178 522.991 187.178 535.815 187.178H588.901C601.724 187.178 608.136 187.178 613.117 184.882C618.523 182.39 622.862 178.051 625.355 172.645C627.651 167.664 627.651 161.252 627.651 148.429V126.164C627.651 113.34 627.651 106.929 625.355 101.947C622.862 96.5414 618.523 92.2022 613.117 89.7101C608.136 87.4137 601.724 87.4137 588.901 87.4137Z" fill="white"/>
<path d="M537.346 103.152C537.617 103.156 537.875 103.266 538.065 103.46L561.441 127.366C561.535 127.461 561.609 127.575 561.659 127.699C561.709 127.824 561.734 127.957 561.732 128.091L561.368 160.582C561.367 160.722 561.337 160.859 561.28 160.987C561.223 161.114 561.141 161.228 561.038 161.322C560.934 161.417 560.812 161.49 560.68 161.536C560.547 161.582 560.406 161.6 560.266 161.59C553.767 161.103 547.532 158.814 542.262 154.979C536.992 151.144 532.896 145.916 530.434 139.881C527.972 133.846 527.241 127.245 528.325 120.818C529.408 114.391 532.263 108.393 536.567 103.499C536.66 103.394 536.774 103.309 536.901 103.249C537.029 103.189 537.167 103.157 537.308 103.153C537.32 103.152 537.333 103.152 537.346 103.152Z" fill="#E6E6E6"/>
<path d="M561.116 91.6467C561.376 91.6499 561.626 91.752 561.815 91.9326C561.916 92.0288 561.996 92.1449 562.05 92.2736C562.104 92.4023 562.131 92.5409 562.129 92.6804L561.8 121.996C561.798 122.198 561.736 122.395 561.622 122.561C561.508 122.728 561.347 122.857 561.16 122.932C560.972 123.007 560.767 123.025 560.569 122.984C560.372 122.942 560.191 122.843 560.05 122.698L539.652 101.838C539.555 101.738 539.479 101.621 539.429 101.491C539.379 101.362 539.356 101.224 539.361 101.085C539.366 100.946 539.4 100.81 539.459 100.685C539.518 100.56 539.603 100.448 539.707 100.356C545.639 95.134 553.16 92.066 561.052 91.648C561.073 91.6469 561.094 91.6465 561.116 91.6467Z" fill="#26547C"/>
<path d="M550.607 175.495C550.593 176.732 550.213 177.936 549.514 178.957C548.816 179.978 547.83 180.768 546.682 181.229C545.534 181.689 544.276 181.799 543.065 181.544C541.855 181.289 540.748 180.681 539.883 179.797C539.018 178.913 538.435 177.792 538.208 176.576C537.98 175.36 538.118 174.104 538.604 172.967C539.09 171.83 539.902 170.862 540.938 170.187C541.974 169.511 543.187 169.158 544.424 169.172C546.082 169.192 547.664 169.869 548.823 171.055C549.982 172.24 550.624 173.837 550.607 175.495Z" fill="#26547C"/>
<path d="M568.473 175.695C568.459 176.932 568.079 178.137 567.38 179.157C566.682 180.178 565.696 180.968 564.548 181.429C563.4 181.889 562.142 181.999 560.931 181.744C559.721 181.489 558.613 180.881 557.749 179.997C556.884 179.113 556.301 177.992 556.073 176.776C555.846 175.561 555.984 174.305 556.47 173.167C556.956 172.03 557.768 171.062 558.804 170.387C559.84 169.711 561.053 169.358 562.29 169.372C563.948 169.393 565.53 170.07 566.689 171.255C567.848 172.441 568.49 174.037 568.473 175.695Z" fill="#26547C"/>
<path d="M594.579 210.116H527.083C514.26 210.116 507.848 210.116 502.867 212.413C497.461 214.905 493.122 219.244 490.63 224.65C488.333 229.631 488.333 236.043 488.333 248.866V282.14C488.333 294.963 488.333 301.375 490.63 306.356C493.122 311.762 497.461 316.101 502.867 318.593C507.848 320.89 514.26 320.89 527.083 320.89H594.579C607.403 320.89 613.815 320.89 618.796 318.593C624.202 316.101 628.541 311.762 631.033 306.356C633.329 301.375 633.329 294.963 633.329 282.14V248.866C633.329 236.043 633.329 229.631 631.033 224.65C628.541 219.244 624.202 214.905 618.796 212.413C613.815 210.116 607.403 210.116 594.579 210.116Z" fill="#F2F2F2"/>
<path d="M587.375 215.621H534.288C521.465 215.621 515.053 215.621 510.072 217.917C504.666 220.409 500.327 224.748 497.835 230.154C495.538 235.135 495.538 241.547 495.538 254.371V276.635C495.538 289.459 495.538 295.871 497.835 300.852C500.327 306.258 504.666 310.597 510.072 313.089C515.053 315.385 521.465 315.385 534.288 315.385H587.375C600.198 315.385 606.61 315.385 611.591 313.089C616.997 310.597 621.336 306.258 623.828 300.852C626.125 295.871 626.125 289.459 626.125 276.635V254.371C626.125 241.547 626.125 235.135 623.828 230.154C621.336 224.748 616.997 220.409 611.591 217.917C606.61 215.621 600.198 215.621 587.375 215.621Z" fill="white"/>
<path d="M517.695 248.41C520.689 248.41 523.117 245.983 523.117 242.988C523.117 239.994 520.689 237.566 517.695 237.566C514.7 237.566 512.273 239.994 512.273 242.988C512.273 245.983 514.7 248.41 517.695 248.41Z" fill="#26547C"/>
<path d="M604.812 238.769C605.296 238.768 605.775 238.863 606.221 239.047C606.668 239.231 607.074 239.502 607.416 239.844C607.759 240.185 608.03 240.591 608.215 241.037C608.4 241.484 608.496 241.963 608.496 242.446C608.496 242.929 608.4 243.408 608.215 243.855C608.03 244.301 607.759 244.707 607.416 245.048C607.074 245.39 606.668 245.66 606.221 245.845C605.775 246.029 605.296 246.124 604.812 246.123H547.787C546.812 246.123 545.876 245.736 545.187 245.046C544.497 244.356 544.11 243.421 544.11 242.446C544.11 241.471 544.497 240.535 545.187 239.846C545.876 239.156 546.812 238.769 547.787 238.769H604.812ZM604.812 237.868H547.787C547.185 237.867 546.589 237.985 546.033 238.215C545.477 238.444 544.971 238.781 544.546 239.207C544.12 239.632 543.782 240.137 543.551 240.693C543.321 241.248 543.202 241.844 543.202 242.446C543.202 243.048 543.321 243.643 543.551 244.199C543.782 244.755 544.12 245.26 544.546 245.685C544.971 246.11 545.477 246.448 546.033 246.677C546.589 246.907 547.185 247.025 547.787 247.024H604.812C605.414 247.025 606.01 246.907 606.566 246.677C607.123 246.448 607.628 246.11 608.054 245.685C608.48 245.26 608.817 244.755 609.048 244.199C609.278 243.643 609.397 243.048 609.397 242.446C609.397 241.844 609.278 241.248 609.048 240.693C608.817 240.137 608.48 239.632 608.054 239.207C607.628 238.781 607.123 238.444 606.566 238.215C606.01 237.985 605.414 237.867 604.812 237.868Z" fill="#26547C"/>
<path d="M582.311 247.024H539.383C538.169 247.024 537.004 246.541 536.146 245.683C535.287 244.824 534.805 243.66 534.805 242.446C534.805 241.232 535.287 240.067 536.146 239.209C537.004 238.35 538.169 237.868 539.383 237.868H582.311C583.525 237.868 584.69 238.35 585.548 239.209C586.407 240.067 586.889 241.232 586.889 242.446C586.889 243.66 586.407 244.824 585.548 245.683C584.69 246.541 583.525 247.024 582.311 247.024Z" fill="#26547C"/>
<path d="M517.695 270.925C520.689 270.925 523.117 268.498 523.117 265.503C523.117 262.509 520.689 260.081 517.695 260.081C514.7 260.081 512.273 262.509 512.273 265.503C512.273 268.498 514.7 270.925 517.695 270.925Z" fill="#26547C"/>
<path d="M604.812 261.284C605.296 261.283 605.775 261.377 606.221 261.562C606.668 261.746 607.074 262.017 607.416 262.359C607.759 262.7 608.03 263.106 608.215 263.552C608.4 263.999 608.496 264.477 608.496 264.961C608.496 265.444 608.4 265.923 608.215 266.369C608.03 266.816 607.759 267.222 607.416 267.563C607.074 267.905 606.668 268.175 606.221 268.36C605.775 268.544 605.296 268.639 604.812 268.638H547.787C546.812 268.638 545.876 268.251 545.187 267.561C544.497 266.871 544.11 265.936 544.11 264.961C544.11 263.986 544.497 263.05 545.187 262.361C545.876 261.671 546.812 261.284 547.787 261.284H604.812ZM604.812 260.383H547.787C546.573 260.383 545.408 260.865 544.55 261.724C543.691 262.582 543.209 263.747 543.209 264.961C543.209 266.175 543.691 267.339 544.55 268.198C545.408 269.056 546.573 269.539 547.787 269.539H604.812C606.027 269.539 607.191 269.056 608.049 268.198C608.908 267.339 609.39 266.175 609.39 264.961C609.39 263.747 608.908 262.582 608.049 261.724C607.191 260.865 606.027 260.383 604.812 260.383Z" fill="#26547C"/>
<path d="M598.522 269.539H539.383C538.169 269.539 537.004 269.056 536.146 268.198C535.287 267.339 534.805 266.175 534.805 264.961C534.805 263.747 535.287 262.582 536.146 261.724C537.004 260.865 538.169 260.383 539.383 260.383H598.522C599.736 260.383 600.9 260.865 601.759 261.724C602.617 262.582 603.1 263.747 603.1 264.961C603.1 266.175 602.617 267.339 601.759 268.198C600.9 269.056 599.736 269.539 598.522 269.539Z" fill="#26547C"/>
<path d="M517.695 293.44C520.689 293.44 523.117 291.012 523.117 288.018C523.117 285.023 520.689 282.596 517.695 282.596C514.7 282.596 512.273 285.023 512.273 288.018C512.273 291.012 514.7 293.44 517.695 293.44Z" fill="#26547C"/>
<path d="M604.812 283.799C605.296 283.798 605.775 283.892 606.221 284.077C606.668 284.261 607.074 284.532 607.416 284.873C607.759 285.215 608.03 285.621 608.215 286.067C608.4 286.514 608.496 286.992 608.496 287.476C608.496 287.959 608.4 288.438 608.215 288.884C608.03 289.331 607.759 289.736 607.416 290.078C607.074 290.42 606.668 290.69 606.221 290.875C605.775 291.059 605.296 291.154 604.812 291.153H547.787C546.812 291.153 545.876 290.765 545.187 290.076C544.497 289.386 544.11 288.451 544.11 287.476C544.11 286.501 544.497 285.565 545.187 284.876C545.876 284.186 546.812 283.799 547.787 283.799H604.812ZM604.812 282.898H547.787C546.573 282.898 545.408 283.38 544.55 284.239C543.691 285.097 543.209 286.262 543.209 287.476C543.209 288.69 543.691 289.854 544.55 290.713C545.408 291.571 546.573 292.053 547.787 292.053H604.812C606.027 292.053 607.191 291.571 608.049 290.713C608.908 289.854 609.39 288.69 609.39 287.476C609.39 286.262 608.908 285.097 608.049 284.239C607.191 283.38 606.027 282.898 604.812 282.898Z" fill="#26547C"/>
<path d="M563.399 292.053H539.383C538.781 292.054 538.185 291.937 537.629 291.707C537.073 291.477 536.567 291.14 536.142 290.715C535.716 290.29 535.378 289.785 535.147 289.229C534.917 288.673 534.798 288.077 534.798 287.476C534.798 286.874 534.917 286.278 535.147 285.722C535.378 285.167 535.716 284.662 536.142 284.236C536.567 283.811 537.073 283.474 537.629 283.245C538.185 283.015 538.781 282.897 539.383 282.898H563.399C564.612 282.9 565.774 283.383 566.631 284.241C567.488 285.099 567.97 286.263 567.97 287.476C567.97 288.689 567.488 289.852 566.631 290.71C565.774 291.569 564.612 292.052 563.399 292.053Z" fill="#26547C"/>
<path d="M417.532 101.508H89.9384C77.115 101.508 70.7032 101.508 65.7219 103.804C60.3161 106.296 55.9769 110.636 53.4848 116.041C51.1884 121.023 51.1884 127.434 51.1884 140.258V270.368C51.1884 283.192 51.1884 289.603 53.4848 294.585C55.9769 299.99 60.3161 304.33 65.7219 306.822C70.7032 309.118 77.115 309.118 89.9384 309.118H417.532C430.355 309.118 436.767 309.118 441.748 306.822C447.154 304.33 451.493 299.99 453.985 294.585C456.282 289.603 456.282 283.192 456.282 270.368V140.258C456.282 127.434 456.282 121.023 453.985 116.041C451.493 110.636 447.154 106.296 441.748 103.804C436.767 101.508 430.355 101.508 417.532 101.508Z" fill="#F2F2F2"/>
<path d="M404.029 111.824H103.442C90.6181 111.824 84.2064 111.824 79.225 114.12C73.8192 116.612 69.4801 120.952 66.9879 126.357C64.6915 131.339 64.6915 137.75 64.6915 150.574V260.052C64.6915 272.876 64.6915 279.287 66.9879 284.269C69.4801 289.674 73.8192 294.014 79.225 296.506C84.2064 298.802 90.6181 298.802 103.442 298.802H404.029C416.852 298.802 423.264 298.802 428.245 296.506C433.651 294.014 437.99 289.674 440.482 284.269C442.779 279.287 442.779 272.876 442.779 260.052V150.574C442.779 137.75 442.779 131.339 440.482 126.357C437.99 120.952 433.651 116.612 428.245 114.12C423.264 111.824 416.852 111.824 404.029 111.824Z" fill="white"/>
<path d="M395.888 270.277H120.27C120.041 270.277 119.821 270.186 119.66 270.024C119.498 269.862 119.407 269.643 119.407 269.414V137.31C119.407 137.082 119.498 136.862 119.66 136.7C119.821 136.539 120.041 136.448 120.27 136.448C120.498 136.448 120.718 136.539 120.88 136.7C121.041 136.862 121.132 137.082 121.132 137.31V229.802C121.132 242.625 121.132 249.037 123.429 254.018C125.921 259.424 130.26 263.763 135.666 266.255C140.647 268.552 147.059 268.552 159.882 268.552H395.888C396.117 268.552 396.336 268.642 396.498 268.804C396.66 268.966 396.75 269.185 396.75 269.414C396.75 269.643 396.66 269.862 396.498 270.024C396.336 270.186 396.117 270.277 395.888 270.277Z" fill="#26547C"/>
<path d="M179.157 260.789H154.089C153.41 260.788 152.759 260.518 152.279 260.038C151.799 259.558 151.529 258.907 151.528 258.228V223.671C151.529 222.992 151.799 222.342 152.279 221.862C152.759 221.382 153.41 221.112 154.089 221.111H179.157C179.836 221.112 180.487 221.382 180.967 221.862C181.447 222.342 181.717 222.992 181.718 223.671V258.228C181.717 258.907 181.447 259.558 180.967 260.038C180.487 260.518 179.836 260.788 179.157 260.789Z" fill="#26547C"/>
<path d="M224.873 260.789H199.804C199.126 260.788 198.475 260.518 197.995 260.038C197.515 259.558 197.245 258.907 197.244 258.228V190.894C197.245 190.215 197.515 189.564 197.995 189.084C198.475 188.604 199.126 188.334 199.804 188.334H224.873C225.552 188.334 226.203 188.604 226.683 189.084C227.163 189.564 227.433 190.215 227.433 190.894V258.228C227.433 258.907 227.163 259.558 226.683 260.038C226.203 260.518 225.552 260.788 224.873 260.789Z" fill="#26547C"/>
<path d="M270.589 260.789H245.52C244.841 260.788 244.19 260.518 243.71 260.038C243.23 259.558 242.96 258.907 242.959 258.228V223.671C242.96 222.992 243.23 222.342 243.71 221.862C244.19 221.382 244.841 221.112 245.52 221.111H270.589C271.267 221.112 271.918 221.382 272.398 221.862C272.878 222.342 273.148 222.992 273.149 223.671V258.228C273.148 258.907 272.878 259.558 272.398 260.038C271.918 260.518 271.267 260.788 270.589 260.789Z" fill="#26547C"/>
<path d="M316.304 260.789H291.236C290.572 260.803 289.93 260.554 289.45 260.095C288.97 259.637 288.692 259.008 288.675 258.344V177.84C288.692 177.176 288.97 176.546 289.45 176.088C289.93 175.63 290.572 175.381 291.236 175.395H316.304C316.968 175.381 317.61 175.63 318.089 176.088C318.569 176.546 318.848 177.176 318.865 177.84V258.344C318.848 259.008 318.569 259.637 318.089 260.095C317.61 260.554 316.968 260.803 316.304 260.789Z" fill="#26547C"/>
<path d="M362.02 260.789H336.951C336.272 260.788 335.622 260.518 335.142 260.038C334.662 259.558 334.392 258.907 334.391 258.228V154.666C334.392 153.988 334.662 153.337 335.142 152.857C335.622 152.377 336.272 152.107 336.951 152.106H362.02C362.699 152.107 363.349 152.377 363.829 152.857C364.309 153.337 364.58 153.988 364.58 154.666V258.228C364.58 258.907 364.309 259.558 363.829 260.038C363.349 260.518 362.699 260.788 362.02 260.789Z" fill="#26547C"/>
<path d="M166.623 210.76C169.481 210.76 171.798 208.443 171.798 205.585C171.798 202.727 169.481 200.409 166.623 200.409C163.765 200.409 161.448 202.727 161.448 205.585C161.448 208.443 163.765 210.76 166.623 210.76Z" fill="#26547C"/>
<path d="M212.339 177.12C215.197 177.12 217.514 174.803 217.514 171.945C217.514 169.087 215.197 166.77 212.339 166.77C209.48 166.77 207.163 169.087 207.163 171.945C207.163 174.803 209.48 177.12 212.339 177.12Z" fill="#26547C"/>
<path d="M258.054 210.76C260.913 210.76 263.23 208.443 263.23 205.585C263.23 202.727 260.913 200.409 258.054 200.409C255.196 200.409 252.879 202.727 252.879 205.585C252.879 208.443 255.196 210.76 258.054 210.76Z" fill="#26547C"/>
<path d="M303.77 160.732C306.628 160.732 308.945 158.415 308.945 155.556C308.945 152.698 306.628 150.381 303.77 150.381C300.912 150.381 298.595 152.698 298.595 155.556C298.595 158.415 300.912 160.732 303.77 160.732Z" fill="#26547C"/>
<path d="M349.486 141.755C352.344 141.755 354.661 139.438 354.661 136.58C354.661 133.722 352.344 131.405 349.486 131.405C346.627 131.405 344.31 133.722 344.31 136.58C344.31 139.438 346.627 141.755 349.486 141.755Z" fill="#26547C"/>
<path d="M279.315 183.596C273.814 189.616 271.063 192.627 268.034 194.477C261.455 198.495 253.391 199.254 246.178 196.532C242.857 195.279 239.593 192.835 233.066 187.946L231.697 186.921C227.529 183.799 225.445 182.238 223.334 181.204C216.398 177.807 208.28 177.807 201.344 181.204C199.233 182.237 197.149 183.798 192.981 186.92L167.83 205.758C167.449 206.044 166.909 205.966 166.623 205.585V205.585C166.338 205.204 166.415 204.664 166.796 204.378L192.541 185.094C197.129 181.658 199.423 179.939 201.769 178.845C208.469 175.719 216.209 175.719 222.909 178.845C225.255 179.939 227.549 181.658 232.137 185.094L232.968 185.716C239.382 190.521 242.589 192.923 245.847 194.17C253.126 196.957 261.288 196.189 267.919 192.095C270.887 190.262 273.59 187.304 278.997 181.388L303.134 154.974C303.221 154.879 303.328 154.805 303.447 154.756V154.756L348.363 136.659C348.805 136.481 349.307 136.695 349.485 137.137V137.137C349.664 137.579 349.45 138.081 349.008 138.259L312.451 152.988C309.565 154.151 308.121 154.733 306.774 155.479C305.306 156.293 303.923 157.253 302.646 158.344C301.476 159.345 300.426 160.494 298.327 162.791L279.315 183.596Z" fill="#26547C"/>
</svg>
